<svg width="10" height="7" viewBox="0 0 10 7" fill="none" xmlns="http://www.w3.org/2000/svg">
<path fill-rule="evenodd" clip-rule="evenodd" d="M9.52483 3.56707C9.52483 4.5401 9.22583 5.46892 8.6784 6.24525C8.53998 6.44155 8.27008 6.48744 8.07557 6.34775C7.88105 6.20807 7.83558 5.93572 7.97399 5.73942C8.4181 5.10963 8.66029 4.35729 8.66029 3.56707C8.66029 2.764 8.41012 2.00013 7.95249 1.36454C7.81216 1.16963 7.85497 0.896835 8.0481 0.755223C8.24124 0.61361 8.51157 0.65681 8.6519 0.851713C9.21598 1.63515 9.52483 2.57819 9.52483 3.56707ZM2.85523 1.72887C4.05969 0.654833 5.96759 1.5098 5.96759 3.12358V3.80333C5.96759 5.41711 4.05969 6.27207 2.85523 5.19803V4.89516C2.58687 5.08599 2.25872 5.1982 1.90435 5.1982C0.997152 5.1982 0.261719 4.46276 0.261719 3.55556V3.37166C0.261719 2.46446 0.997152 1.72903 1.90435 1.72903C2.25872 1.72903 2.58687 1.84124 2.85523 2.03207V1.72887Z" fill="#EB5757"/>
</svg>
