<svg width="15" height="13" viewBox="0 0 15 13" fill="none" xmlns="http://www.w3.org/2000/svg">
<path fill-rule="evenodd" clip-rule="evenodd" d="M14.2681 6.25579C14.2681 8.30174 13.6267 10.2512 12.4556 11.8686C12.3148 12.0631 12.0443 12.1056 11.8516 11.9635C11.6588 11.8213 11.6167 11.5484 11.7576 11.3539C12.8214 9.88467 13.4036 8.11513 13.4036 6.25579C13.4036 4.42377 12.8384 2.67869 11.8034 1.22165C11.6643 1.02584 11.7089 0.753323 11.9029 0.612963C12.097 0.472603 12.367 0.517552 12.5061 0.713359C13.6455 2.3174 14.2681 4.23991 14.2681 6.25579ZM10.5805 10.6397C11.3997 9.45863 11.8468 8.0465 11.8468 6.56682C11.8468 5.07269 11.3909 3.64758 10.5568 2.45994C10.4188 2.26337 10.149 2.21695 9.95421 2.35625C9.75942 2.49555 9.71342 2.76782 9.85146 2.96438C10.5826 4.00556 10.9822 5.25465 10.9822 6.56682C10.9822 7.86632 10.5903 9.10405 9.87224 10.1395C9.73535 10.3369 9.78294 10.6089 9.97853 10.747C10.1741 10.8851 10.4437 10.8371 10.5805 10.6397ZM9.52555 6.56769C9.52555 7.54071 9.22655 8.46954 8.67911 9.24587C8.5407 9.44216 8.2708 9.48805 8.07629 9.34837C7.88177 9.20869 7.83629 8.93633 7.97471 8.74004C8.41882 8.11024 8.661 7.3579 8.661 6.56769C8.661 5.76462 8.41084 5.00075 7.95321 4.36515C7.81287 4.17025 7.85568 3.89745 8.04882 3.75584C8.24196 3.61423 8.51229 3.65743 8.65262 3.85233C9.2167 4.63576 9.52555 5.57881 9.52555 6.56769ZM2.85596 4.72949C4.06042 3.65545 5.96831 4.51041 5.96831 6.12419V6.80395C5.96831 8.41772 4.06042 9.27269 2.85596 8.19865V7.89578C2.5876 8.0866 2.25945 8.19881 1.90508 8.19881C0.997883 8.19881 0.262451 7.46338 0.262451 6.55618V6.37228C0.262451 5.46508 0.997883 4.72965 1.90508 4.72965C2.25945 4.72965 2.5876 4.84186 2.85596 5.03269V4.72949Z" fill="#2F80ED"/>
</svg>
